<?xml version="1.0" encoding="UTF-8"?>
<svg xmlns="http://www.w3.org/2000/svg" xmlns:xlink="http://www.w3.org/1999/xlink" width="141.7323pt" height="141.7323pt" viewBox="0 0 141.7323 141.7323" version="1.1">
<g id="surface1">
<path style=" stroke:none;fill-rule:nonzero;fill:rgb(94.509888%,35.293579%,16.470337%);fill-opacity:1;" d="M 3.722656 67.144531 C 3.722656 104.226562 33.78125 134.285156 70.867188 134.285156 C 107.949219 134.285156 138.011719 104.226562 138.011719 67.144531 C 138.011719 30.0625 107.949219 0 70.867188 0 C 33.78125 0 3.722656 30.0625 3.722656 67.144531 "/>
<path style=" stroke:none;fill-rule:nonzero;fill:rgb(40.783691%,70.196533%,86.66687%);fill-opacity:1;" d="M 123.425781 71.265625 C 123.503906 70.101562 123.550781 68.925781 123.550781 67.738281 C 123.550781 38.769531 100.070312 15.289062 71.105469 15.289062 C 42.136719 15.289062 18.65625 38.769531 18.65625 67.738281 C 18.65625 68.925781 18.699219 70.101562 18.777344 71.265625 Z M 123.425781 71.265625 "/>
<path style=" stroke:none;fill-rule:nonzero;fill:rgb(19.607544%,24.313354%,28.627014%);fill-opacity:1;" d="M 71.050781 19.734375 C 97.320312 19.734375 118.757812 40.765625 119.441406 66.871094 L 22.65625 66.871094 C 23.339844 40.765625 44.78125 19.734375 71.050781 19.734375 Z M 131.425781 66.871094 L 125.027344 66.871094 C 124.339844 37.644531 100.445312 14.160156 71.050781 14.160156 C 41.660156 14.160156 17.761719 37.644531 17.074219 66.871094 L 10.308594 66.871094 L 10.308594 85.539062 L 57.011719 85.539062 L 24.765625 92.785156 C 33.554688 109.066406 50.773438 120.128906 70.570312 120.128906 C 90.371094 120.128906 107.585938 109.066406 116.378906 92.785156 L 84.128906 85.539062 L 131.425781 85.539062 Z M 131.425781 66.871094 "/>
<path style=" stroke:none;fill-rule:nonzero;fill:rgb(19.607544%,24.313354%,28.627014%);fill-opacity:1;" d="M 123.132812 68.839844 C 121.035156 66.335938 118.910156 63.871094 116.929688 61.25 C 115.769531 59.714844 114.511719 58.167969 112.699219 57.390625 C 111.050781 56.6875 109.210938 56.390625 107.46875 56.039062 C 103.351562 55.214844 99.125 47.980469 95.550781 45.746094 C 91.570312 43.261719 89.617188 43.09375 86.0625 40.027344 C 78.90625 39.242188 79.726562 36.816406 77.726562 33.324219 C 76.710938 31.558594 75.644531 29.871094 74.277344 28.351562 C 73.316406 27.285156 72.078125 25.566406 70.671875 25.066406 C 70.175781 24.894531 69.71875 24.714844 69.277344 24.535156 C 68.261719 25.875 67.046875 27.070312 65.777344 28.035156 C 64.28125 29.167969 62.585938 29.480469 60.832031 29.601562 C 57.808594 34.085938 53.015625 36.824219 49.550781 41.136719 C 48.925781 41.917969 48.34375 42.730469 47.792969 43.5625 C 47.582031 45.128906 46.960938 46.574219 46.082031 47.914062 C 45.929688 48.261719 45.738281 48.597656 45.488281 48.917969 C 45.46875 49.332031 45.347656 49.761719 45.089844 50.199219 C 44.011719 52.027344 43.117188 53.859375 41.480469 55.019531 C 40.824219 55.734375 40.039062 56.355469 39.050781 56.839844 C 36.515625 58.078125 33.660156 57.945312 30.929688 58.296875 C 27.753906 58.707031 26.054688 60.109375 24.40625 62.761719 C 23.003906 65.023438 21.644531 67.328125 20.210938 69.574219 L 123.550781 69.574219 C 123.550781 69.574219 123.398438 69.300781 123.132812 68.839844 "/>
<path style=" stroke:none;fill-rule:nonzero;fill:rgb(100%,100%,100%);fill-opacity:1;" d="M 61.992188 63.625 L 50.136719 58.65625 L 47.164062 55.527344 C 45.910156 54.203125 44.105469 53.578125 42.3125 53.800781 C 42.199219 55.53125 40.4375 57.839844 38.265625 56.914062 C 36.632812 56.214844 35.78125 56.835938 33.835938 56.699219 C 31.164062 56.953125 29.472656 57.144531 29.382812 57.210938 C 24.339844 60.898438 26.097656 63.441406 20.496094 66.566406 C 20.40625 66.722656 20.359375 66.808594 20.359375 66.808594 L 41.148438 66.808594 L 35.828125 61.234375 L 46.25 63.625 Z M 61.992188 63.625 "/>
<path style=" stroke:none;fill-rule:nonzero;fill:rgb(100%,100%,100%);fill-opacity:1;" d="M 73.714844 63.789062 L 77.664062 49.203125 L 79.40625 47.050781 L 81.417969 40.949219 L 85.269531 41.824219 L 88.960938 44.675781 L 83.851562 49.707031 L 85.269531 53.394531 L 79.910156 53.226562 Z M 73.714844 63.789062 "/>
<path style=" stroke:none;fill-rule:nonzero;fill:rgb(100%,100%,100%);fill-opacity:1;" d="M 92.3125 65.800781 L 103.148438 54.539062 L 113.976562 57.207031 Z M 92.3125 65.800781 "/>
<path style=" stroke:none;fill-rule:nonzero;fill:rgb(100%,100%,100%);fill-opacity:1;" d="M 100.695312 66.871094 L 113.589844 62.085938 L 117.292969 66.871094 Z M 100.695312 66.871094 "/>
<path style=" stroke:none;fill-rule:nonzero;fill:rgb(100%,100%,100%);fill-opacity:1;" d="M 54.480469 39.820312 L 57.953125 44.929688 L 64.085938 46.363281 L 60.097656 47.890625 L 68.785156 63.789062 L 56.667969 51.804688 L 47.734375 48.8125 L 49.472656 44.011719 L 53.96875 39.820312 Z M 54.480469 39.820312 "/>
<path style=" stroke:none;fill-rule:nonzero;fill:rgb(100%,100%,100%);fill-opacity:1;" d="M 55.261719 36.863281 L 61.289062 33.285156 L 65.582031 33.285156 L 71.542969 27.5625 L 75.292969 30.21875 L 73.042969 25.929688 L 68.785156 23.496094 L 64.535156 28.925781 L 61.992188 28.375 Z M 55.261719 36.863281 "/>
<path style=" stroke:none;fill-rule:nonzero;fill:rgb(19.607544%,24.313354%,28.627014%);fill-opacity:1;" d="M 68.371094 21.925781 C 68.347656 21.925781 68.335938 21.929688 68.335938 21.929688 L 64.269531 28.390625 L 62.054688 27.28125 L 54.296875 35.964844 L 47.464844 42.609375 L 44.324219 49.996094 L 40.261719 56.089844 L 29 56.089844 L 17.214844 70.28125 L 123.550781 70.28125 L 113.578125 55.90625 L 103.789062 54.0625 L 95.734375 44.316406 L 89.386719 43.535156 L 86.0625 40.027344 L 81.445312 38.730469 L 78.859375 33.375 L 74.058594 25.4375 L 69.996094 24.144531 C 69.195312 22.0625 68.535156 21.925781 68.371094 21.925781 Z M 70.035156 30.394531 L 70.125 30.421875 L 73.625 36.214844 L 76.09375 41.316406 L 77.257812 43.734375 L 79.84375 44.457031 L 82.875 45.308594 L 85.070312 47.621094 L 86.539062 49.171875 L 88.660156 49.433594 L 92.660156 49.925781 L 99.207031 57.847656 L 100.578125 59.503906 L 102.6875 59.902344 L 110.082031 61.296875 L 112.191406 64.335938 L 29.878906 64.335938 L 31.789062 62.035156 L 43.445312 62.035156 L 45.210938 59.390625 L 49.273438 53.292969 L 49.578125 52.832031 L 49.796875 52.324219 L 52.46875 46.039062 L 58.441406 40.226562 L 58.59375 40.078125 L 58.730469 39.925781 L 63.460938 34.632812 L 66.433594 36.117188 L 69.304688 31.554688 Z M 70.035156 30.394531 "/>
<path style=" stroke:none;fill-rule:nonzero;fill:rgb(19.607544%,24.313354%,28.627014%);fill-opacity:1;" d="M 90.203125 29.367188 L 86.578125 27.894531 L 88.050781 31.515625 L 86.578125 35.140625 L 90.203125 33.664062 L 93.824219 35.140625 L 92.351562 31.515625 L 93.824219 27.894531 Z M 90.203125 29.367188 "/>
<path style=" stroke:none;fill-rule:nonzero;fill:rgb(19.607544%,24.313354%,28.627014%);fill-opacity:1;" d="M 41.890625 36.613281 L 38.265625 35.140625 L 39.742188 38.765625 L 38.265625 42.386719 L 41.890625 40.914062 L 45.515625 42.386719 L 44.039062 38.765625 L 45.515625 35.140625 Z M 41.890625 36.613281 "/>
<path style=" stroke:none;fill-rule:nonzero;fill:rgb(40.783691%,70.196533%,86.66687%);fill-opacity:1;" d="M 45.515625 98.410156 L 41.890625 96.933594 L 43.363281 100.558594 L 41.890625 104.179688 L 45.515625 102.707031 L 49.136719 104.179688 L 47.664062 100.558594 L 49.136719 96.933594 Z M 45.515625 98.410156 "/>
<path style=" stroke:none;fill-rule:nonzero;fill:rgb(40.783691%,70.196533%,86.66687%);fill-opacity:1;" d="M 93.65625 98.972656 L 90.03125 97.5 L 91.507812 101.121094 L 90.03125 104.742188 L 93.65625 103.269531 L 97.28125 104.742188 L 95.804688 101.121094 L 97.28125 97.5 Z M 93.65625 98.972656 "/>
<path style=" stroke:none;fill-rule:nonzero;fill:rgb(19.607544%,24.313354%,28.627014%);fill-opacity:1;" d="M 100.605469 39.648438 L 98.761719 40.367188 L 100.558594 41.1875 L 101.273438 43.03125 L 102.09375 41.230469 L 103.941406 40.515625 L 102.140625 39.695312 L 101.425781 37.851562 Z M 100.605469 39.648438 "/>
<path style=" stroke:none;fill-rule:nonzero;fill:rgb(19.607544%,24.313354%,28.627014%);fill-opacity:1;" d="M 107.789062 47.058594 L 104.800781 48.21875 L 107.714844 49.546875 L 108.875 52.535156 L 110.203125 49.617188 L 113.191406 48.460938 L 110.277344 47.132812 L 109.117188 44.144531 Z M 107.789062 47.058594 "/>
<path style=" stroke:none;fill-rule:nonzero;fill:rgb(19.607544%,24.313354%,28.627014%);fill-opacity:1;" d="M 78.546875 23.125 L 76.699219 23.84375 L 78.5 24.664062 L 79.214844 26.507812 L 80.035156 24.707031 L 81.878906 23.992188 L 80.082031 23.171875 L 79.367188 21.328125 Z M 78.546875 23.125 "/>
<path style=" stroke:none;fill-rule:nonzero;fill:rgb(19.607544%,24.313354%,28.627014%);fill-opacity:1;" d="M 53.332031 28.136719 L 51.488281 28.851562 L 53.289062 29.671875 L 54.003906 31.515625 L 54.824219 29.714844 L 56.667969 29 L 54.867188 28.179688 L 54.152344 26.335938 Z M 53.332031 28.136719 "/>
<path style=" stroke:none;fill-rule:nonzero;fill:rgb(19.607544%,24.313354%,28.627014%);fill-opacity:1;" d="M 32.445312 47.550781 L 30.601562 48.265625 L 32.402344 49.085938 L 33.117188 50.929688 L 33.9375 49.128906 L 35.785156 48.414062 L 33.980469 47.59375 L 33.265625 45.75 Z M 32.445312 47.550781 "/>
<path style=" stroke:none;fill-rule:nonzero;fill:rgb(100%,100%,100%);fill-opacity:1;" d="M 36.828125 18.457031 L 36.4375 17.890625 C 36.328125 17.730469 36.238281 17.636719 36.164062 17.609375 C 36.09375 17.582031 36.003906 17.605469 35.890625 17.683594 C 35.78125 17.757812 35.726562 17.835938 35.722656 17.910156 C 35.722656 17.984375 35.777344 18.101562 35.890625 18.265625 L 37.921875 21.238281 C 38.035156 21.398438 38.125 21.492188 38.195312 21.519531 C 38.265625 21.542969 38.355469 21.523438 38.464844 21.445312 C 38.578125 21.371094 38.632812 21.292969 38.632812 21.214844 C 38.636719 21.140625 38.582031 21.019531 38.472656 20.859375 L 37.945312 20.089844 L 38.960938 19.394531 L 39.363281 19.980469 C 39.621094 20.359375 39.792969 20.644531 39.875 20.835938 C 39.957031 21.027344 39.996094 21.207031 39.996094 21.378906 C 40 21.558594 39.949219 21.722656 39.851562 21.859375 C 39.753906 22 39.527344 22.191406 39.179688 22.429688 C 38.769531 22.710938 38.476562 22.875 38.292969 22.925781 C 38.117188 22.976562 37.933594 22.972656 37.753906 22.914062 C 37.582031 22.859375 37.417969 22.761719 37.265625 22.617188 C 37.109375 22.472656 36.902344 22.210938 36.644531 21.835938 L 34.863281 19.234375 C 34.609375 18.859375 34.441406 18.574219 34.363281 18.378906 C 34.28125 18.183594 34.25 17.996094 34.261719 17.816406 C 34.277344 17.621094 34.347656 17.441406 34.472656 17.28125 C 34.601562 17.121094 34.851562 16.910156 35.226562 16.65625 C 35.546875 16.433594 35.796875 16.300781 35.976562 16.25 C 36.152344 16.199219 36.328125 16.207031 36.496094 16.277344 C 36.65625 16.335938 36.816406 16.441406 36.96875 16.59375 C 37.121094 16.742188 37.324219 17.003906 37.578125 17.375 L 37.84375 17.761719 Z M 39.4375 15.421875 L 39.15625 15.59375 L 40.265625 17.390625 L 40.546875 17.21875 C 40.695312 17.128906 40.777344 17.035156 40.789062 16.945312 C 40.804688 16.855469 40.761719 16.734375 40.664062 16.574219 L 40.070312 15.609375 C 39.96875 15.449219 39.878906 15.355469 39.792969 15.328125 C 39.707031 15.300781 39.585938 15.332031 39.4375 15.421875 Z M 41.84375 18.519531 C 41.71875 18.320312 41.601562 18.199219 41.496094 18.164062 C 41.382812 18.125 41.242188 18.164062 41.070312 18.269531 L 40.878906 18.386719 L 42.109375 20.382812 L 40.957031 21.09375 L 37.375 15.28125 L 38.570312 14.539062 C 39.28125 14.101562 39.816406 13.917969 40.175781 13.988281 C 40.535156 14.058594 40.890625 14.382812 41.242188 14.953125 L 41.652344 15.617188 C 41.863281 15.953125 41.957031 16.25 41.941406 16.5 C 41.925781 16.753906 41.796875 16.996094 41.550781 17.230469 C 41.839844 17.113281 42.097656 17.097656 42.324219 17.1875 C 42.550781 17.273438 42.757812 17.46875 42.941406 17.765625 L 43.882812 19.289062 L 42.75 19.988281 Z M 41.605469 12.714844 L 42.824219 12.128906 L 45.082031 16.816406 C 45.164062 16.988281 45.238281 17.089844 45.308594 17.128906 C 45.378906 17.167969 45.480469 17.15625 45.613281 17.089844 C 45.742188 17.027344 45.816406 16.957031 45.832031 16.878906 C 45.84375 16.800781 45.8125 16.675781 45.730469 16.503906 L 43.472656 11.816406 L 44.644531 11.253906 L 46.648438 15.421875 C 46.878906 15.902344 47.027344 16.265625 47.09375 16.507812 C 47.160156 16.75 47.179688 16.972656 47.15625 17.175781 C 47.128906 17.386719 47.039062 17.570312 46.886719 17.722656 C 46.738281 17.878906 46.480469 18.042969 46.117188 18.21875 C 45.746094 18.394531 45.457031 18.496094 45.246094 18.515625 C 45.035156 18.535156 44.839844 18.488281 44.660156 18.378906 C 44.492188 18.273438 44.335938 18.125 44.1875 17.925781 C 44.042969 17.726562 43.851562 17.378906 43.613281 16.882812 Z M 48.242188 17.074219 L 47.765625 15.945312 L 47.46875 11.316406 L 46.195312 11.855469 L 45.71875 10.726562 L 48.292969 9.640625 L 48.714844 10.640625 L 49.03125 15.414062 L 50.472656 14.804688 L 50.949219 15.933594 Z M 51.859375 12.605469 L 52.4375 12.402344 L 51.09375 9.460938 Z M 51.25 15.804688 L 49.804688 9.074219 L 51.84375 8.359375 L 54.945312 14.507812 L 53.636719 14.96875 L 52.929688 13.4375 L 52.121094 13.722656 L 52.527344 15.355469 Z M 55.464844 14.339844 L 53.832031 7.710938 L 55.683594 7.253906 L 57.992188 12.246094 L 56.625 7.023438 L 57.8125 6.730469 L 59.445312 13.363281 L 57.601562 13.816406 L 55.242188 8.683594 L 56.65625 14.046875 Z M 60.28125 13.210938 L 59.035156 6.496094 L 60.71875 6.183594 C 61.394531 6.054688 61.878906 6.113281 62.167969 6.351562 C 62.457031 6.589844 62.675781 7.121094 62.832031 7.945312 L 63.304688 10.492188 C 63.457031 11.316406 63.441406 11.890625 63.257812 12.21875 C 63.074219 12.546875 62.644531 12.769531 61.96875 12.894531 Z M 62.015625 11.179688 L 61.382812 7.777344 C 61.347656 7.59375 61.300781 7.476562 61.246094 7.425781 C 61.1875 7.371094 61.085938 7.359375 60.941406 7.386719 L 60.589844 7.453125 L 61.390625 11.765625 L 61.746094 11.703125 C 61.886719 11.675781 61.976562 11.625 62.011719 11.554688 C 62.046875 11.484375 62.046875 11.359375 62.015625 11.179688 Z M 66.371094 10.726562 L 66.074219 7.136719 C 66.0625 6.945312 66.027344 6.820312 65.972656 6.761719 C 65.921875 6.703125 65.824219 6.675781 65.679688 6.6875 C 65.535156 6.699219 65.441406 6.742188 65.398438 6.808594 C 65.355469 6.875 65.34375 7.003906 65.359375 7.195312 L 65.652344 10.785156 C 65.667969 10.976562 65.703125 11.101562 65.753906 11.160156 C 65.808594 11.21875 65.90625 11.242188 66.050781 11.230469 C 66.195312 11.21875 66.285156 11.179688 66.328125 11.113281 C 66.371094 11.046875 66.386719 10.917969 66.371094 10.726562 Z M 67.730469 10.390625 C 67.769531 10.855469 67.773438 11.191406 67.746094 11.394531 C 67.71875 11.601562 67.65625 11.773438 67.558594 11.921875 C 67.453125 12.082031 67.316406 12.199219 67.144531 12.273438 C 66.972656 12.34375 66.640625 12.402344 66.148438 12.441406 C 65.65625 12.484375 65.316406 12.480469 65.136719 12.4375 C 64.957031 12.390625 64.800781 12.296875 64.671875 12.15625 C 64.550781 12.027344 64.457031 11.859375 64.394531 11.65625 C 64.332031 11.453125 64.28125 11.125 64.246094 10.671875 L 63.988281 7.527344 C 63.949219 7.074219 63.945312 6.746094 63.972656 6.535156 C 64.003906 6.328125 64.070312 6.148438 64.167969 6 C 64.273438 5.835938 64.425781 5.714844 64.613281 5.640625 C 64.808594 5.5625 65.128906 5.503906 65.578125 5.46875 C 66.03125 5.429688 66.355469 5.4375 66.550781 5.480469 C 66.75 5.527344 66.917969 5.621094 67.046875 5.761719 C 67.171875 5.894531 67.265625 6.0625 67.324219 6.261719 C 67.386719 6.464844 67.4375 6.789062 67.472656 7.242188 Z M 70.65625 12.140625 L 70.800781 5.3125 L 72.152344 5.34375 L 72.035156 10.945312 L 73.316406 10.972656 L 73.289062 12.195312 Z M 76.042969 10.773438 L 76.332031 7.183594 C 76.347656 6.992188 76.332031 6.863281 76.292969 6.796875 C 76.25 6.730469 76.15625 6.6875 76.015625 6.675781 C 75.871094 6.664062 75.769531 6.691406 75.714844 6.75 C 75.664062 6.8125 75.628906 6.9375 75.613281 7.125 L 75.324219 10.714844 C 75.308594 10.90625 75.320312 11.039062 75.363281 11.105469 C 75.40625 11.171875 75.5 11.210938 75.648438 11.222656 C 75.789062 11.234375 75.886719 11.210938 75.9375 11.148438 C 75.992188 11.089844 76.027344 10.964844 76.042969 10.773438 Z M 77.441406 10.660156 C 77.402344 11.128906 77.351562 11.460938 77.292969 11.65625 C 77.234375 11.855469 77.140625 12.015625 77.023438 12.144531 C 76.890625 12.285156 76.738281 12.378906 76.554688 12.425781 C 76.375 12.46875 76.039062 12.472656 75.546875 12.433594 C 75.054688 12.390625 74.71875 12.335938 74.550781 12.261719 C 74.378906 12.1875 74.238281 12.070312 74.132812 11.910156 C 74.035156 11.761719 73.972656 11.582031 73.945312 11.371094 C 73.914062 11.160156 73.917969 10.832031 73.953125 10.378906 L 74.207031 7.230469 C 74.246094 6.78125 74.292969 6.453125 74.355469 6.25 C 74.417969 6.050781 74.511719 5.882812 74.632812 5.753906 C 74.765625 5.609375 74.929688 5.515625 75.132812 5.46875 C 75.332031 5.425781 75.660156 5.417969 76.113281 5.457031 C 76.5625 5.492188 76.878906 5.550781 77.070312 5.625 C 77.257812 5.703125 77.40625 5.824219 77.511719 5.984375 C 77.613281 6.136719 77.679688 6.3125 77.707031 6.523438 C 77.734375 6.730469 77.730469 7.0625 77.695312 7.515625 Z M 79.609375 10.535156 L 79.492188 11.1875 C 79.457031 11.359375 79.464844 11.488281 79.511719 11.574219 C 79.558594 11.65625 79.652344 11.710938 79.792969 11.738281 C 79.945312 11.765625 80.054688 11.75 80.121094 11.691406 C 80.1875 11.632812 80.242188 11.503906 80.277344 11.3125 L 80.363281 10.835938 C 80.390625 10.691406 80.402344 10.582031 80.398438 10.511719 C 80.398438 10.4375 80.382812 10.371094 80.355469 10.3125 C 80.292969 10.171875 80.109375 10.03125 79.808594 9.894531 C 79.671875 9.828125 79.566406 9.777344 79.492188 9.734375 C 79.144531 9.542969 78.925781 9.324219 78.824219 9.078125 C 78.730469 8.828125 78.722656 8.46875 78.8125 7.992188 L 78.925781 7.371094 C 79.035156 6.765625 79.214844 6.367188 79.457031 6.164062 C 79.699219 5.960938 80.0625 5.90625 80.554688 5.996094 L 80.945312 6.070312 C 81.253906 6.125 81.5 6.203125 81.6875 6.300781 C 81.871094 6.398438 82.007812 6.527344 82.097656 6.683594 C 82.167969 6.804688 82.203125 6.949219 82.210938 7.121094 C 82.21875 7.289062 82.1875 7.554688 82.121094 7.910156 L 82.027344 8.433594 L 80.847656 8.214844 L 80.921875 7.792969 C 80.960938 7.582031 80.964844 7.4375 80.929688 7.359375 C 80.894531 7.28125 80.804688 7.230469 80.65625 7.203125 C 80.515625 7.175781 80.414062 7.191406 80.351562 7.246094 C 80.289062 7.304688 80.242188 7.417969 80.210938 7.597656 L 80.132812 8.03125 C 80.070312 8.359375 80.265625 8.640625 80.71875 8.871094 C 80.84375 8.9375 80.945312 8.992188 81.019531 9.035156 C 81.363281 9.222656 81.585938 9.4375 81.683594 9.679688 C 81.78125 9.921875 81.785156 10.277344 81.699219 10.75 L 81.53125 11.65625 C 81.429688 12.21875 81.242188 12.597656 80.96875 12.804688 C 80.695312 13.011719 80.304688 13.066406 79.792969 12.972656 L 79.4375 12.90625 C 78.871094 12.804688 78.507812 12.621094 78.335938 12.351562 C 78.167969 12.089844 78.136719 11.652344 78.25 11.042969 L 78.382812 10.308594 Z M 83.941406 13.726562 L 85.511719 7.082031 L 86.828125 7.394531 L 85.539062 12.847656 L 86.785156 13.140625 L 86.503906 14.335938 Z M 88.21875 14.953125 L 86.921875 14.554688 L 88.925781 8.027344 L 90.21875 8.421875 Z M 89.09375 15.175781 L 91.75 8.882812 L 93.554688 9.644531 L 92.175781 14.914062 L 95.023438 10.265625 L 96.800781 11.015625 L 94.148438 17.308594 L 93.019531 16.832031 L 95.339844 11.546875 L 92.265625 16.511719 L 90.886719 15.929688 L 92.324219 10.273438 L 90.171875 15.628906 Z M 96.144531 18.328125 L 94.925781 17.742188 L 97.886719 11.589844 L 99.105469 12.175781 Z M 97.390625 19.027344 L 100.058594 14.101562 L 99.257812 13.664062 L 99.839844 12.589844 L 102.636719 14.105469 L 102.050781 15.179688 L 101.25 14.746094 L 98.578125 19.671875 Z M 99.789062 20.371094 L 103.613281 14.714844 L 105.730469 16.144531 L 105.042969 17.15625 L 104.050781 16.484375 L 103.203125 17.734375 L 104.136719 18.363281 L 103.476562 19.339844 L 102.546875 18.710938 L 101.59375 20.113281 L 102.683594 20.847656 L 101.996094 21.863281 Z M 104.84375 21.082031 L 104.441406 21.609375 C 104.335938 21.75 104.285156 21.871094 104.289062 21.964844 C 104.292969 22.058594 104.351562 22.148438 104.464844 22.238281 C 104.589844 22.332031 104.695312 22.367188 104.78125 22.34375 C 104.867188 22.320312 104.96875 22.230469 105.089844 22.074219 L 105.378906 21.6875 C 105.46875 21.570312 105.527344 21.480469 105.558594 21.414062 C 105.589844 21.347656 105.605469 21.28125 105.609375 21.214844 C 105.613281 21.0625 105.515625 20.855469 105.308594 20.597656 C 105.214844 20.476562 105.144531 20.386719 105.097656 20.3125 C 104.871094 19.988281 104.773438 19.691406 104.796875 19.425781 C 104.820312 19.160156 104.976562 18.835938 105.269531 18.449219 L 105.652344 17.945312 C 106.019531 17.457031 106.359375 17.175781 106.667969 17.105469 C 106.972656 17.035156 107.324219 17.148438 107.722656 17.449219 L 108.042969 17.691406 C 108.289062 17.878906 108.476562 18.058594 108.597656 18.230469 C 108.71875 18.398438 108.785156 18.574219 108.792969 18.753906 C 108.800781 18.894531 108.769531 19.042969 108.699219 19.199219 C 108.628906 19.351562 108.484375 19.574219 108.265625 19.863281 L 107.945312 20.285156 L 106.988281 19.5625 L 107.246094 19.222656 C 107.375 19.050781 107.441406 18.921875 107.445312 18.835938 C 107.449219 18.75 107.394531 18.664062 107.273438 18.574219 C 107.160156 18.488281 107.0625 18.453125 106.980469 18.476562 C 106.902344 18.5 106.808594 18.582031 106.695312 18.726562 L 106.429688 19.078125 C 106.230469 19.34375 106.277344 19.679688 106.578125 20.089844 C 106.664062 20.207031 106.730469 20.300781 106.777344 20.371094 C 107 20.695312 107.101562 20.988281 107.078125 21.246094 C 107.054688 21.507812 106.902344 21.828125 106.609375 22.210938 L 106.054688 22.945312 C 105.710938 23.398438 105.375 23.65625 105.035156 23.71875 C 104.699219 23.78125 104.324219 23.652344 103.910156 23.339844 L 103.621094 23.121094 C 103.164062 22.777344 102.921875 22.449219 102.886719 22.132812 C 102.855469 21.820312 103.023438 21.417969 103.398438 20.921875 L 103.847656 20.328125 Z M 104.84375 21.082031 "/>
<path style=" stroke:none;fill-rule:evenodd;fill:rgb(100%,100%,100%);fill-opacity:1;" d="M 14.527344 81.601562 L 16.265625 81.601562 L 16.265625 72.109375 L 18.085938 72.109375 L 18.085938 70.53125 L 12.703125 70.53125 L 12.703125 72.109375 L 14.527344 72.109375 Z M 18.925781 81.601562 L 20.664062 81.601562 L 20.664062 76.855469 L 21.265625 76.855469 C 22.054688 76.855469 22.355469 77.1875 22.355469 78.214844 L 22.355469 80.242188 C 22.355469 81.144531 22.417969 81.3125 22.511719 81.601562 L 24.289062 81.601562 C 24.113281 81.1875 24.09375 80.792969 24.09375 80.257812 L 24.09375 78.308594 C 24.09375 77.0625 23.8125 76.238281 22.941406 75.96875 L 22.941406 75.9375 C 23.71875 75.621094 24.082031 74.894531 24.082031 73.753906 L 24.082031 73.078125 C 24.082031 71.367188 23.304688 70.53125 21.503906 70.53125 L 18.925781 70.53125 Z M 20.664062 75.273438 L 20.664062 72.109375 L 21.453125 72.109375 C 22.074219 72.109375 22.339844 72.457031 22.339844 73.246094 L 22.339844 74.101562 C 22.339844 74.988281 21.941406 75.273438 21.296875 75.273438 Z M 25.300781 81.601562 L 30.046875 81.601562 L 30.046875 80.019531 L 27.042969 80.019531 L 27.042969 76.617188 L 29.425781 76.617188 L 29.425781 75.035156 L 27.042969 75.035156 L 27.042969 72.109375 L 30.046875 72.109375 L 30.046875 70.53125 L 25.300781 70.53125 Z M 31.046875 81.601562 L 32.785156 81.601562 L 32.785156 78.070312 L 33.480469 76.664062 L 34.953125 81.601562 L 36.773438 81.601562 L 34.667969 74.59375 L 36.742188 70.53125 L 35 70.53125 L 32.785156 75.191406 L 32.785156 70.53125 L 31.046875 70.53125 Z M 37.597656 81.601562 L 39.335938 81.601562 L 39.335938 78.070312 L 40.03125 76.664062 L 41.503906 81.601562 L 43.324219 81.601562 L 41.21875 74.59375 L 43.292969 70.53125 L 41.550781 70.53125 L 39.335938 75.191406 L 39.335938 70.53125 L 37.597656 70.53125 Z M 44.148438 81.601562 L 45.890625 81.601562 L 45.890625 70.53125 L 44.148438 70.53125 Z M 47.183594 81.601562 L 48.730469 81.601562 L 48.730469 73.515625 L 48.761719 73.515625 L 50.851562 81.601562 L 52.640625 81.601562 L 52.640625 70.53125 L 51.089844 70.53125 L 51.089844 77.15625 L 51.058594 77.15625 L 49.363281 70.53125 L 47.183594 70.53125 Z M 56.40625 81.757812 C 58.113281 81.757812 59 80.746094 59 78.972656 L 59 75.355469 L 56.484375 75.355469 L 56.484375 76.933594 L 57.355469 76.933594 L 57.355469 79.101562 C 57.355469 79.894531 57.003906 80.175781 56.453125 80.175781 C 55.898438 80.175781 55.546875 79.894531 55.546875 79.101562 L 55.546875 73.039062 C 55.546875 72.25 55.898438 71.949219 56.453125 71.949219 C 57.003906 71.949219 57.355469 72.25 57.355469 73.039062 L 57.355469 74.101562 L 59 74.101562 L 59 73.152344 C 59 71.382812 58.113281 70.367188 56.40625 70.367188 C 54.695312 70.367188 53.808594 71.382812 53.808594 73.152344 L 53.808594 78.972656 C 53.808594 80.746094 54.695312 81.757812 56.40625 81.757812 Z M 62.652344 81.601562 L 65.386719 81.601562 C 67.125 81.601562 68.027344 80.683594 68.027344 78.972656 L 68.027344 78.027344 C 68.027344 76.855469 67.664062 76.03125 66.730469 75.71875 L 66.730469 75.6875 C 67.507812 75.367188 67.851562 74.65625 67.851562 73.515625 L 67.851562 73.078125 C 67.851562 71.367188 67.078125 70.53125 65.273438 70.53125 L 62.652344 70.53125 Z M 64.390625 75.035156 L 64.390625 72.109375 L 65.230469 72.109375 C 65.84375 72.109375 66.113281 72.457031 66.113281 73.246094 L 66.113281 73.867188 C 66.113281 74.75 65.71875 75.035156 65.070312 75.035156 Z M 64.390625 80.019531 L 64.390625 76.617188 L 65.167969 76.617188 C 65.957031 76.617188 66.289062 76.933594 66.289062 77.964844 L 66.289062 78.929688 C 66.289062 79.75 65.96875 80.019531 65.386719 80.019531 Z M 71.570312 81.757812 C 73.277344 81.757812 74.167969 80.746094 74.167969 78.972656 L 74.167969 70.53125 L 72.488281 70.53125 L 72.488281 79.101562 C 72.488281 79.894531 72.15625 80.175781 71.601562 80.175781 C 71.050781 80.175781 70.71875 79.894531 70.71875 79.101562 L 70.71875 70.53125 L 68.980469 70.53125 L 68.980469 78.972656 C 68.980469 80.746094 69.863281 81.757812 71.570312 81.757812 Z M 75.398438 81.601562 L 80.144531 81.601562 L 80.144531 80.019531 L 77.140625 80.019531 L 77.140625 76.617188 L 79.527344 76.617188 L 79.527344 75.035156 L 77.140625 75.035156 L 77.140625 72.109375 L 80.144531 72.109375 L 80.144531 70.53125 L 75.398438 70.53125 Z M 81.144531 81.601562 L 82.691406 81.601562 L 82.691406 73.515625 L 82.722656 73.515625 L 84.8125 81.601562 L 86.601562 81.601562 L 86.601562 70.53125 L 85.050781 70.53125 L 85.050781 77.15625 L 85.019531 77.15625 L 83.324219 70.53125 L 81.144531 70.53125 Z M 90.414062 81.757812 C 92.121094 81.757812 93.054688 80.746094 93.054688 78.972656 L 93.054688 73.152344 C 93.054688 71.382812 92.121094 70.367188 90.414062 70.367188 C 88.707031 70.367188 87.769531 71.382812 87.769531 73.152344 L 87.769531 78.972656 C 87.769531 80.746094 88.707031 81.757812 90.414062 81.757812 Z M 90.414062 80.175781 C 89.859375 80.175781 89.507812 79.875 89.507812 79.085938 L 89.507812 73.039062 C 89.507812 72.25 89.859375 71.949219 90.414062 71.949219 C 90.964844 71.949219 91.316406 72.25 91.316406 73.039062 L 91.316406 79.085938 C 91.316406 79.875 90.964844 80.175781 90.414062 80.175781 Z M 96.484375 81.757812 C 98.195312 81.757812 99.113281 80.746094 99.113281 78.941406 C 99.113281 77.566406 98.652344 76.683594 97.199219 75.398438 C 96.058594 74.402344 95.695312 73.816406 95.695312 73.007812 C 95.695312 72.25 96.011719 71.949219 96.566406 71.949219 C 97.117188 71.949219 97.4375 72.25 97.4375 73.039062 L 97.4375 73.609375 L 99.082031 73.609375 L 99.082031 73.152344 C 99.082031 71.382812 98.242188 70.367188 96.546875 70.367188 C 94.859375 70.367188 93.957031 71.382812 93.957031 73.121094 C 93.957031 74.386719 94.433594 75.289062 95.882812 76.570312 C 97.023438 77.566406 97.375 78.152344 97.375 79.070312 C 97.375 79.894531 97.023438 80.175781 96.472656 80.175781 C 95.914062 80.175781 95.570312 79.894531 95.570312 79.101562 L 95.570312 78.339844 L 93.925781 78.339844 L 93.925781 78.972656 C 93.925781 80.746094 94.777344 81.757812 96.484375 81.757812 Z M 102.175781 81.601562 L 103.789062 81.601562 L 104.109375 79.433594 L 106.085938 79.433594 L 106.085938 79.402344 L 106.402344 81.601562 L 108.140625 81.601562 L 106.335938 70.53125 L 103.984375 70.53125 Z M 104.316406 77.933594 L 105.074219 72.457031 L 105.105469 72.457031 L 105.878906 77.933594 Z M 108.984375 81.601562 L 110.722656 81.601562 L 110.722656 70.53125 L 108.984375 70.53125 Z M 112.019531 81.601562 L 113.757812 81.601562 L 113.757812 76.855469 L 114.359375 76.855469 C 115.148438 76.855469 115.449219 77.1875 115.449219 78.214844 L 115.449219 80.242188 C 115.449219 81.144531 115.511719 81.3125 115.605469 81.601562 L 117.382812 81.601562 C 117.207031 81.1875 117.191406 80.792969 117.191406 80.257812 L 117.191406 78.308594 C 117.191406 77.0625 116.90625 76.238281 116.035156 75.96875 L 116.035156 75.9375 C 116.8125 75.621094 117.175781 74.894531 117.175781 73.753906 L 117.175781 73.078125 C 117.175781 71.367188 116.402344 70.53125 114.597656 70.53125 L 112.019531 70.53125 Z M 113.757812 75.273438 L 113.757812 72.109375 L 114.546875 72.109375 C 115.167969 72.109375 115.4375 72.457031 115.4375 73.246094 L 115.4375 74.101562 C 115.4375 74.988281 115.039062 75.273438 114.390625 75.273438 Z M 118.394531 81.601562 L 123.140625 81.601562 L 123.140625 80.019531 L 120.136719 80.019531 L 120.136719 76.617188 L 122.523438 76.617188 L 122.523438 75.035156 L 120.136719 75.035156 L 120.136719 72.109375 L 123.140625 72.109375 L 123.140625 70.53125 L 118.394531 70.53125 Z M 126.402344 81.757812 C 128.109375 81.757812 129.027344 80.746094 129.027344 78.941406 C 129.027344 77.566406 128.566406 76.683594 127.113281 75.398438 C 125.972656 74.402344 125.609375 73.816406 125.609375 73.007812 C 125.609375 72.25 125.925781 71.949219 126.480469 71.949219 C 127.03125 71.949219 127.351562 72.25 127.351562 73.039062 L 127.351562 73.609375 L 128.996094 73.609375 L 128.996094 73.152344 C 128.996094 71.382812 128.160156 70.367188 126.464844 70.367188 C 124.773438 70.367188 123.871094 71.382812 123.871094 73.121094 C 123.871094 74.386719 124.347656 75.289062 125.800781 76.570312 C 126.9375 77.566406 127.289062 78.152344 127.289062 79.070312 C 127.289062 79.894531 126.9375 80.175781 126.386719 80.175781 C 125.832031 80.175781 125.484375 79.894531 125.484375 79.101562 L 125.484375 78.339844 L 123.839844 78.339844 L 123.839844 78.972656 C 123.839844 80.746094 124.691406 81.757812 126.402344 81.757812 "/>
<path style=" stroke:none;fill-rule:evenodd;fill:rgb(100%,100%,100%);fill-opacity:1;" d="M 73.898438 103.789062 C 73.875 103.804688 73.851562 103.820312 73.828125 103.835938 C 73.609375 104.34375 73.390625 104.847656 73.171875 105.355469 C 73.1875 105.367188 73.203125 105.375 73.21875 105.382812 C 73.613281 105.015625 74.007812 104.648438 74.460938 104.226562 C 74.125 104.203125 73.847656 104.199219 73.898438 103.789062 Z M 52.585938 117.054688 C 52.652344 117.078125 52.71875 117.101562 52.785156 117.121094 C 53.460938 115.4375 54.140625 113.753906 54.800781 112.066406 C 54.914062 111.785156 55.207031 111.613281 55.21875 111.277344 C 55.21875 111.136719 55.25 110.992188 55.304688 110.863281 C 55.675781 109.949219 56.054688 109.039062 56.433594 108.128906 C 56.453125 108.082031 56.492188 108.042969 56.523438 107.996094 C 56.554688 108.007812 56.582031 108.019531 56.613281 108.03125 C 56.574219 108.222656 56.535156 108.414062 56.492188 108.605469 C 56.476562 108.675781 56.433594 108.746094 56.441406 108.808594 C 56.496094 109.207031 56.34375 109.550781 56.203125 109.902344 C 55.738281 111.074219 55.246094 112.238281 55.003906 113.484375 C 54.9375 113.8125 54.753906 114.085938 54.429688 114.253906 C 54.335938 114.300781 54.238281 114.445312 54.234375 114.546875 C 54.226562 114.835938 54.109375 115.078125 53.964844 115.316406 C 53.898438 115.429688 53.867188 115.539062 53.988281 115.65625 C 54.035156 115.699219 54.039062 115.808594 54.023438 115.878906 C 53.957031 116.175781 53.871094 116.46875 53.804688 116.769531 C 53.753906 116.988281 53.796875 117.222656 53.761719 117.445312 C 59.171875 119.175781 64.945312 120.113281 70.933594 120.113281 C 79.875 120.113281 88.328125 118.027344 95.835938 114.316406 C 95.847656 114.265625 95.859375 114.210938 95.875 114.152344 C 94.992188 113.890625 94.128906 113.636719 93.21875 113.367188 C 93.871094 112.875 94.480469 112.417969 95.101562 111.957031 C 94.65625 111.460938 94.234375 110.988281 93.808594 110.523438 C 93.703125 110.414062 93.664062 110.3125 93.714844 110.164062 C 93.878906 109.679688 93.820312 109.226562 93.488281 108.820312 C 93.414062 108.726562 93.359375 108.617188 93.308594 108.511719 C 93.246094 108.367188 93.15625 108.328125 92.992188 108.351562 C 92.285156 108.457031 91.574219 108.542969 90.839844 108.640625 C 90.792969 108.183594 90.734375 107.746094 90.707031 107.308594 C 90.699219 107.109375 90.613281 107.042969 90.4375 107 C 90.023438 106.898438 89.613281 106.769531 89.199219 106.671875 C 89.007812 106.628906 88.921875 106.550781 88.941406 106.339844 C 88.960938 106.121094 88.945312 105.902344 88.945312 105.65625 C 87.898438 105.523438 86.871094 105.394531 85.828125 105.265625 C 85.773438 105.691406 86.140625 105.78125 86.332031 105.988281 C 86.316406 106.011719 86.3125 106.03125 86.300781 106.035156 C 85.324219 106.460938 84.371094 106.9375 83.339844 107.226562 C 82.457031 107.476562 81.59375 107.777344 80.8125 108.269531 C 80.410156 108.519531 79.988281 108.703125 79.527344 108.792969 C 77.945312 109.097656 76.414062 109.585938 74.894531 110.117188 C 74.832031 110.136719 74.765625 110.148438 74.628906 110.183594 C 74.816406 109.835938 74.960938 109.539062 75.128906 109.257812 C 75.230469 109.085938 75.246094 108.933594 75.214844 108.730469 C 75.179688 108.515625 75.269531 108.28125 75.308594 108.054688 C 75.335938 107.910156 75.359375 107.761719 75.40625 107.621094 C 75.550781 107.164062 75.722656 106.710938 75.855469 106.25 C 75.953125 105.90625 75.964844 105.527344 76.097656 105.195312 C 76.292969 104.71875 76.4375 104.253906 76.328125 103.730469 C 76.289062 103.550781 76.316406 103.359375 76.53125 103.25 C 76.59375 103.21875 76.625 103.089844 76.636719 103.003906 C 76.789062 101.988281 76.792969 100.980469 76.476562 99.992188 C 76.414062 99.796875 76.40625 99.640625 76.601562 99.5625 C 76.511719 99.234375 76.449219 98.914062 76.335938 98.613281 C 76.234375 98.34375 76.332031 98.199219 76.539062 98.046875 C 76.707031 97.925781 76.84375 97.765625 76.992188 97.617188 C 77.050781 97.554688 77.101562 97.480469 77.183594 97.371094 C 77.183594 97.273438 77.175781 97.117188 77.1875 96.957031 C 77.207031 96.582031 77.210938 96.582031 77.585938 96.550781 C 77.597656 96.550781 77.613281 96.535156 77.636719 96.519531 C 77.640625 96.386719 77.644531 96.246094 77.65625 96.109375 C 77.675781 95.925781 77.753906 95.820312 77.964844 95.847656 C 78.070312 95.859375 78.191406 95.847656 78.285156 95.808594 C 78.445312 95.738281 78.574219 95.757812 78.703125 95.859375 C 78.894531 96.003906 79.105469 96.042969 79.328125 95.941406 C 79.609375 95.808594 79.90625 95.691406 80.167969 95.523438 C 80.519531 95.289062 80.84375 95.007812 81.183594 94.75 C 81.253906 94.695312 81.335938 94.65625 81.375 94.632812 C 81.460938 94.796875 81.535156 94.929688 81.597656 95.070312 C 81.625 95.136719 81.652344 95.242188 81.621094 95.285156 C 81.421875 95.558594 81.410156 95.882812 81.324219 96.191406 C 81.078125 97.101562 80.808594 98.007812 80.542969 98.917969 C 80.011719 100.746094 79.480469 102.574219 78.941406 104.402344 C 78.703125 105.210938 78.453125 106.019531 78.199219 106.820312 C 78.148438 106.980469 78.039062 107.125 77.957031 107.273438 C 78.179688 107.367188 78.238281 107.339844 78.28125 107.070312 C 78.285156 107.03125 78.289062 106.992188 78.300781 106.953125 C 78.644531 105.832031 78.996094 104.714844 79.332031 103.589844 C 79.726562 102.277344 80.113281 100.960938 80.496094 99.644531 C 80.925781 98.167969 81.347656 96.691406 81.777344 95.214844 C 81.800781 95.136719 81.835938 95.042969 81.898438 94.996094 C 82.078125 94.859375 82.273438 94.761719 82.402344 94.546875 C 82.542969 94.3125 82.457031 93.890625 82.191406 93.8125 C 81.632812 93.644531 81.179688 93.972656 80.695312 94.144531 C 80.394531 94.253906 80.117188 94.433594 79.808594 94.53125 C 79.535156 94.617188 79.234375 94.671875 78.980469 94.449219 C 78.761719 94.257812 78.53125 94.074219 78.347656 93.855469 C 78.273438 93.761719 78.246094 93.546875 78.304688 93.449219 C 78.453125 93.175781 78.667969 92.9375 78.84375 92.679688 C 78.910156 92.582031 78.929688 92.453125 79.003906 92.363281 C 79.09375 92.253906 79.207031 92.117188 79.332031 92.085938 C 79.570312 92.027344 79.8125 91.726562 79.695312 91.515625 C 79.566406 91.289062 79.382812 91.089844 79.21875 90.878906 C 79.171875 90.820312 79.121094 90.761719 79.058594 90.71875 C 78.941406 90.636719 78.828125 90.53125 78.699219 90.507812 C 78.535156 90.472656 78.347656 90.527344 78.289062 90.289062 C 78.28125 90.257812 78.179688 90.226562 78.125 90.230469 C 77.621094 90.269531 77.144531 90.367188 76.925781 90.910156 C 76.898438 90.976562 76.855469 91.035156 76.832031 91.101562 C 76.773438 91.257812 76.695312 91.273438 76.546875 91.183594 C 76.144531 90.933594 75.972656 90.585938 76.050781 90.125 C 76.109375 89.796875 75.992188 89.601562 75.722656 89.402344 C 74.929688 88.816406 73.8125 88.921875 73.1875 89.679688 C 72.964844 89.949219 72.742188 90.214844 72.511719 90.472656 C 72.457031 90.53125 72.371094 90.597656 72.300781 90.597656 C 72.097656 90.59375 71.894531 90.550781 71.691406 90.535156 C 71.5625 90.523438 71.421875 90.5 71.308594 90.542969 C 71.109375 90.613281 70.914062 90.710938 70.746094 90.835938 C 70.621094 90.929688 70.484375 91.066406 70.449219 91.207031 C 70.347656 91.648438 70.273438 92.101562 70.226562 92.550781 C 70.191406 92.867188 70.332031 93.027344 70.640625 93.113281 C 70.757812 93.144531 70.871094 93.167969 71.007812 93.203125 C 70.828125 93.488281 70.671875 93.738281 70.496094 94.015625 C 70.449219 93.957031 70.410156 93.886719 70.351562 93.847656 C 70.28125 93.800781 70.191406 93.75 70.109375 93.75 C 70.003906 93.746094 69.902344 93.796875 69.792969 93.816406 C 69.617188 93.84375 69.507812 93.925781 69.554688 94.113281 C 69.660156 94.515625 69.769531 94.917969 69.890625 95.3125 C 69.929688 95.4375 69.925781 95.515625 69.839844 95.628906 C 69.648438 95.886719 69.382812 96.03125 69.113281 96.179688 C 68.863281 96.316406 68.789062 96.464844 68.859375 96.742188 C 68.90625 96.917969 68.945312 97.097656 69.015625 97.265625 C 69.203125 97.703125 69.554688 97.980469 70.03125 97.636719 C 70.074219 97.605469 70.121094 97.582031 70.136719 97.574219 C 70.464844 97.816406 70.765625 98.035156 71.03125 98.230469 L 71.03125 100.441406 C 71.035156 100.445312 71.039062 100.445312 71.042969 100.445312 L 71.042969 98.457031 C 71.0625 98.453125 71.082031 98.449219 71.105469 98.441406 C 71.203125 98.625 71.28125 98.820312 71.40625 98.984375 C 71.476562 99.074219 71.625 99.167969 71.722656 99.15625 C 71.941406 99.121094 71.992188 99.195312 71.984375 99.390625 C 71.980469 99.496094 72.003906 99.609375 72.027344 99.714844 C 72.050781 99.820312 72.0625 99.984375 72.128906 100.015625 C 72.324219 100.101562 72.335938 100.277344 72.40625 100.425781 C 72.566406 100.769531 72.738281 101.101562 72.902344 101.441406 C 72.976562 101.597656 73.046875 101.753906 73.109375 101.914062 C 73.316406 102.441406 73.519531 102.972656 73.71875 103.503906 C 73.742188 103.566406 73.734375 103.652344 73.710938 103.710938 C 73.625 103.929688 73.527344 104.144531 73.433594 104.359375 C 73.214844 104.839844 72.96875 105.304688 72.792969 105.800781 C 72.660156 106.175781 72.53125 106.535156 72.253906 106.832031 C 71.972656 107.128906 71.730469 107.449219 71.355469 107.65625 C 70.917969 107.902344 70.523438 108.222656 70.113281 108.507812 C 69.953125 108.621094 69.929688 108.777344 70.023438 108.925781 C 70.171875 109.171875 70.347656 109.40625 70.523438 109.636719 C 70.554688 109.675781 70.636719 109.683594 70.695312 109.6875 C 71.035156 109.710938 71.15625 109.894531 71.03125 110.214844 C 70.851562 110.652344 70.679688 111.09375 70.484375 111.523438 C 70.445312 111.617188 70.339844 111.707031 70.242188 111.742188 C 69.871094 111.878906 69.496094 112 69.117188 112.105469 C 67.78125 112.492188 66.4375 112.867188 65.097656 113.246094 C 65.0625 113.253906 65.019531 113.246094 64.964844 113.246094 C 64.964844 113.097656 64.960938 112.957031 64.96875 112.816406 C 65.0625 110.957031 65.15625 109.097656 65.257812 107.242188 C 65.261719 107.132812 65.292969 107.023438 65.3125 106.914062 C 65.339844 106.785156 65.382812 106.660156 65.386719 106.53125 C 65.398438 106.257812 65.378906 105.984375 65.390625 105.714844 C 65.453125 104.476562 65.515625 103.242188 65.585938 102.003906 C 65.613281 101.542969 65.652344 101.082031 65.691406 100.609375 C 65.738281 100.601562 65.777344 100.597656 65.8125 100.589844 C 65.941406 100.550781 66.136719 100.59375 66.03125 100.324219 C 65.992188 100.230469 66.105469 100.078125 66.132812 99.949219 C 66.148438 99.878906 66.152344 99.792969 66.132812 99.726562 C 66.050781 99.496094 65.910156 99.277344 65.878906 99.042969 C 65.84375 98.773438 65.789062 98.46875 66.066406 98.257812 C 65.886719 98.082031 65.714844 98.121094 65.53125 98.199219 C 65.328125 98.285156 65.488281 98.410156 65.484375 98.519531 C 65.480469 98.566406 65.46875 98.613281 65.46875 98.660156 C 65.480469 99.1875 65.125 99.507812 64.792969 99.839844 C 64.699219 99.929688 64.59375 100.042969 64.480469 100.0625 C 63.695312 100.203125 62.910156 100.332031 62.109375 100.214844 C 61.894531 100.183594 61.816406 100.105469 61.9375 99.929688 C 62.167969 99.59375 62.117188 99.21875 62.15625 98.855469 C 62.179688 98.65625 62.191406 98.433594 62.125 98.25 C 61.96875 97.839844 62.042969 97.421875 62.042969 97.011719 C 62.042969 96.90625 62.152344 96.804688 62.226562 96.671875 C 62.207031 96.636719 62.160156 96.542969 62.109375 96.453125 C 62.128906 96.425781 62.148438 96.398438 62.164062 96.371094 C 62.257812 96.40625 62.351562 96.445312 62.445312 96.476562 C 62.605469 96.523438 62.769531 96.601562 62.929688 96.601562 C 63.003906 96.597656 63.085938 96.441406 63.140625 96.34375 C 63.320312 96.039062 63.527344 95.960938 63.757812 96.125 C 63.980469 96.007812 63.949219 95.792969 63.980469 95.59375 C 63.996094 95.488281 64.074219 95.390625 64.125 95.289062 C 64.199219 95.339844 64.28125 95.378906 64.347656 95.4375 C 64.585938 95.652344 64.820312 95.695312 65.082031 95.582031 C 65.21875 95.523438 65.230469 95.449219 65.152344 95.347656 C 65.039062 95.199219 64.921875 95.046875 64.792969 94.90625 C 64.644531 94.742188 64.570312 94.5625 64.578125 94.328125 C 64.585938 94.136719 64.585938 93.914062 64.5 93.75 C 64.136719 93.0625 63.46875 92.496094 62.5625 92.84375 C 62.140625 93.007812 61.613281 93.125 61.539062 93.730469 C 61.539062 93.757812 61.515625 93.792969 61.492188 93.808594 C 61.308594 93.953125 61.3125 94.132812 61.367188 94.339844 C 61.460938 94.703125 61.207031 94.929688 60.847656 94.824219 C 60.761719 94.800781 60.632812 94.761719 60.578125 94.804688 C 60.429688 94.917969 60.3125 94.839844 60.1875 94.785156 C 59.933594 94.671875 59.675781 94.628906 59.414062 94.753906 C 58.828125 95.027344 58.214844 95.253906 57.855469 95.851562 C 57.773438 95.988281 57.65625 95.976562 57.542969 95.859375 C 57.15625 95.449219 56.636719 95.378906 56.132812 95.398438 C 55.777344 95.414062 55.4375 95.523438 55.0625 95.484375 C 54.511719 95.425781 54.078125 95.722656 53.710938 96.105469 C 53.367188 96.460938 53.019531 96.8125 52.707031 97.195312 C 52.316406 97.675781 52.3125 97.976562 52.625 98.515625 C 52.679688 98.609375 52.746094 98.699219 52.8125 98.785156 C 53.039062 99.074219 53.269531 99.355469 53.304688 99.738281 C 53.320312 99.898438 53.378906 100.007812 53.566406 99.957031 C 53.578125 99.996094 53.589844 100.019531 53.59375 100.039062 C 53.628906 100.234375 53.636719 100.449219 53.929688 100.421875 C 53.953125 100.421875 54 100.523438 54.015625 100.585938 C 54.105469 101.007812 54.1875 101.429688 54.289062 101.847656 C 54.308594 101.941406 54.382812 102.042969 54.460938 102.09375 C 54.648438 102.21875 54.789062 102.355469 54.742188 102.621094 C 54.828125 102.445312 54.976562 102.269531 55.105469 102.421875 C 55.28125 102.628906 55.503906 102.601562 55.699219 102.667969 C 56.105469 102.800781 56.25 102.949219 56.242188 103.378906 C 56.238281 103.757812 56.214844 104.136719 56.203125 104.515625 C 56.195312 104.699219 56.207031 104.890625 56.195312 105.078125 C 56.167969 105.390625 56.132812 105.703125 56.097656 106.015625 C 56.054688 106.371094 56.042969 106.738281 55.953125 107.082031 C 55.859375 107.417969 55.855469 107.742188 55.894531 108.082031 C 55.925781 108.347656 55.984375 108.640625 55.902344 108.878906 C 55.671875 109.554688 55.375 110.210938 55.097656 110.875 C 55.074219 110.929688 54.984375 111 54.9375 110.992188 C 54.742188 110.957031 54.765625 111.128906 54.726562 111.214844 C 54.695312 111.28125 54.730469 111.378906 54.746094 111.464844 C 54.757812 111.542969 54.8125 111.632812 54.789062 111.695312 C 54.675781 111.988281 54.535156 112.273438 54.417969 112.5625 C 53.84375 113.964844 53.273438 115.367188 52.703125 116.769531 Z M 71.136719 110.453125 C 70.960938 110.816406 70.78125 111.183594 70.574219 111.613281 C 71.070312 111.441406 71.492188 111.292969 71.949219 111.136719 C 71.667969 110.902344 71.417969 110.6875 71.136719 110.453125 Z M 55.960938 108.527344 C 56.046875 108.476562 56.066406 108.472656 56.070312 108.464844 C 56.523438 107.371094 56.976562 106.28125 57.425781 105.183594 C 57.449219 105.128906 57.421875 105.03125 57.386719 104.976562 C 57.265625 104.792969 57.125 104.621094 57.003906 104.441406 C 56.816406 104.171875 56.640625 103.894531 56.433594 103.585938 C 56.40625 103.671875 56.390625 103.707031 56.386719 103.742188 C 56.3125 104.628906 56.179688 105.511719 56.285156 106.40625 C 56.308594 106.570312 56.378906 106.730469 56.382812 106.898438 C 56.386719 106.996094 56.316406 107.105469 56.261719 107.199219 C 56.210938 107.289062 56.09375 107.359375 56.078125 107.449219 C 56.023438 107.789062 56 108.132812 55.960938 108.527344 Z M 72.699219 107.792969 C 72.976562 107.917969 72.941406 108.066406 72.847656 108.214844 C 72.726562 108.402344 72.589844 108.578125 72.472656 108.765625 C 72.429688 108.84375 72.414062 108.945312 72.40625 109.035156 C 72.382812 109.601562 72.539062 110.121094 72.886719 110.574219 C 72.796875 110.675781 72.722656 110.761719 72.648438 110.84375 C 72.65625 110.855469 72.664062 110.863281 72.671875 110.875 C 73.078125 110.730469 73.484375 110.585938 73.882812 110.445312 C 73.808594 110.347656 73.699219 110.265625 73.691406 110.175781 C 73.675781 109.894531 73.691406 109.609375 73.710938 109.328125 C 73.714844 109.257812 73.785156 109.195312 73.824219 109.128906 C 73.910156 108.96875 74.03125 108.8125 74.074219 108.640625 C 74.164062 108.277344 74.230469 107.902344 74.265625 107.53125 C 74.296875 107.183594 74.269531 106.832031 74.269531 106.480469 C 74.242188 106.464844 74.210938 106.453125 74.183594 106.4375 C 73.703125 106.875 73.222656 107.316406 72.699219 107.792969 Z M 57.96875 116.90625 C 59.503906 115.976562 60.984375 115.082031 62.472656 114.183594 C 62.464844 114.175781 62.453125 114.160156 62.441406 114.15625 C 61.917969 114.089844 61.453125 113.796875 60.882812 113.875 C 60.570312 113.917969 60.222656 113.757812 59.894531 113.683594 C 59.707031 113.640625 59.617188 113.4375 59.757812 113.324219 C 59.914062 113.199219 59.894531 113.0625 59.90625 112.910156 C 59.910156 112.84375 59.929688 112.773438 59.953125 112.707031 C 60.074219 112.398438 60.203125 112.089844 60.324219 111.777344 C 60.367188 111.664062 60.371094 111.535156 60.433594 111.441406 C 60.738281 110.976562 60.851562 110.445312 61.039062 109.9375 C 61.28125 109.273438 61.332031 108.609375 61.324219 107.917969 C 61.324219 107.722656 61.417969 107.511719 61.511719 107.332031 C 61.597656 107.15625 61.554688 106.976562 61.363281 106.941406 C 61.160156 106.90625 60.953125 106.886719 60.730469 106.855469 C 60.714844 106.890625 60.683594 106.941406 60.664062 107 C 60.464844 107.589844 60.269531 108.183594 60.070312 108.773438 C 59.917969 109.21875 59.777344 109.671875 59.589844 110.105469 C 59.410156 110.515625 59.179688 110.902344 58.78125 111.15625 C 58.6875 111.214844 58.617188 111.328125 58.574219 111.433594 C 58.195312 112.378906 57.851562 113.335938 57.441406 114.265625 C 57.304688 114.574219 57.125 114.921875 56.71875 115.015625 C 56.597656 115.042969 56.289062 115.515625 56.292969 115.632812 C 56.292969 115.65625 56.304688 115.679688 56.3125 115.703125 C 56.519531 116.199219 56.929688 116.417969 57.46875 116.316406 C 57.824219 116.25 58.042969 116.464844 57.96875 116.90625 Z M 65.46875 100.75 C 64.980469 100.847656 64.542969 100.917969 64.113281 101.027344 C 63.375 101.214844 62.660156 101.511719 61.875 101.457031 C 61.816406 101.453125 61.714844 101.503906 61.695312 101.554688 C 61.550781 101.925781 61.304688 102.210938 61.011719 102.46875 C 60.972656 102.503906 60.976562 102.648438 61.015625 102.707031 C 61.0625 102.777344 61.167969 102.808594 61.25 102.859375 C 61.488281 103.007812 61.730469 103.148438 61.960938 103.308594 C 62.257812 103.515625 62.539062 103.738281 62.835938 103.949219 C 63.160156 104.179688 63.492188 104.402344 63.820312 104.628906 C 64.355469 104.996094 64.480469 105.527344 64.417969 106.128906 C 64.382812 106.449219 64.296875 106.769531 64.308594 107.089844 C 64.335938 108.144531 64.007812 109.144531 63.878906 110.175781 C 63.800781 110.816406 63.496094 111.425781 63.34375 112.0625 C 63.164062 112.804688 63.25 113.144531 63.949219 113.171875 C 64.125 113.179688 64.304688 113.25 64.472656 113.320312 C 64.730469 113.421875 64.835938 113.375 64.851562 113.09375 C 64.882812 112.597656 64.902344 112.101562 64.925781 111.605469 C 65.003906 110.097656 65.082031 108.59375 65.148438 107.089844 C 65.152344 106.964844 65.070312 106.84375 65.058594 106.714844 C 65.046875 106.59375 65.054688 106.46875 65.082031 106.347656 C 65.101562 106.265625 65.203125 106.195312 65.207031 106.113281 C 65.273438 105.066406 65.332031 104.019531 65.382812 102.96875 C 65.417969 102.261719 65.4375 101.550781 65.46875 100.75 "/>
</g>
</svg>
